# Blender v2.79 (sub 0) OBJ File: 'sheep.blend'
# www.blender.org
o Cube_Cube.007
v 0.725934 0.006092 1.207618
v 0.725934 0.988932 1.207618
v 0.725934 0.006092 0.908769
v 0.725934 0.988932 0.908769
v 1.024783 0.006092 1.207618
v 1.024783 0.988932 1.207618
v 1.024783 0.006092 0.908769
v 1.024783 0.988932 0.908769
v -1.070814 -0.003015 -1.255605
v -1.070814 1.146077 -1.255605
v -1.070814 -0.003015 -1.524894
v -1.070814 1.146077 -1.524894
v -0.804178 -0.003015 -1.255605
v -0.804178 1.146077 -1.255605
v -0.804178 -0.003015 -1.524894
v -0.804178 1.146077 -1.524894
v -0.083190 2.315767 -1.646309
v -0.083190 1.559751 -3.495980
v 0.690714 3.198765 -2.654820
v -0.857094 3.198765 -2.654820
v -0.444566 0.688677 -1.805513
v 0.006837 2.663856 2.225174
v -1.601638 2.663851 0.696201
v -0.996714 2.663853 -1.794892
v 0.167194 3.422751 -0.679029
v -0.167194 0.215192 0.679029
v -0.006837 0.974087 2.225173
v 1.601639 0.974092 0.696201
v 0.791666 0.274272 0.000000
v -0.993543 0.446860 -0.000000
v -1.605866 0.974090 0.679030
v -1.300565 0.970952 -1.246881
v 0.996714 0.974090 -1.794892
v 1.972779 1.905412 0.000000
v -0.000000 1.818972 2.493777
v 1.110818 1.818972 2.017508
v -1.110818 1.818972 2.017508
v -1.110818 1.818971 -2.017508
v -1.972779 1.732531 -0.000000
v 1.110818 1.818971 -2.017508
v 0.277375 2.202036 -2.484551
v 1.300565 2.666991 1.246881
v 1.605866 2.663853 -0.679030
v 0.307014 3.191088 1.246877
v 0.993543 3.191083 0.000000
v -0.791666 3.363671 -0.000000
v 0.778242 -0.003014 -1.282424
v 0.778242 1.146077 -1.282424
v 0.778242 -0.003014 -1.551713
v 0.778242 1.146077 -1.551713
v 1.044878 -0.003014 -1.282424
v 1.044878 1.146077 -1.282424
v 1.044878 -0.003014 -1.551713
v 1.044878 1.146077 -1.551713
v -1.022760 0.006092 1.207617
v -1.022760 0.988932 1.207617
v -1.022760 0.006092 0.908769
v -1.022760 0.988932 0.908769
v -0.723912 0.006092 1.207617
v -0.723912 0.988932 1.207617
v -0.723912 0.006092 0.908769
v -0.723912 0.988932 0.908769
vt 0.043576 0.989025
vt 0.043576 0.989025
vt 0.043576 0.989025
vt 0.043576 0.989025
vt 0.043576 0.989025
vt 0.043576 0.989025
vt 0.043576 0.989025
vt 0.043576 0.989025
vt 0.000000 0.000000
vt 0.000000 0.000000
vt 0.000000 0.000000
vt 0.043576 0.989025
vt 0.043576 0.989025
vt 0.043576 0.989025
vt 0.043576 0.989025
vt 0.043576 0.989025
vt 0.052913 0.979724
vt 0.052913 0.979724
vt 0.052913 0.979724
vt 0.043576 0.989025
vt 0.043576 0.989025
vt 0.000000 0.000000
vt 0.000000 0.000000
vt 0.000000 0.000000
vt 0.037351 0.976624
vt 0.037351 0.976624
vt 0.037351 0.976624
vt 0.012450 0.964222
vt 0.012450 0.964222
vt 0.012450 0.964222
vt 0.012450 0.964222
vt -2.278387 -0.015502
vt -2.278387 -0.015502
vt -2.278387 -0.015502
vt 0.164965 0.167421
vt 0.164965 0.167421
vt 0.164965 0.167421
vt 0.164965 0.167421
vt 0.164965 0.167421
vt 0.164965 0.167421
vt 0.164965 0.167421
vt 0.164965 0.167421
vt 0.164965 0.167421
vt 0.164965 0.167421
vt 0.164965 0.167421
vt 0.164965 0.167421
vt 0.164965 0.167421
vt 0.164965 0.167421
vt 0.164965 0.167421
vt 0.164965 0.167421
vt 0.164965 0.167421
vt 0.164965 0.167421
vt 0.164965 0.167421
vt 0.164965 0.167421
vt 0.164965 0.167421
vt 0.164965 0.167421
vt 0.164965 0.167421
vt 0.164965 0.167421
vt 0.393798 0.966202
vt 0.391967 0.964531
vt 0.396785 0.964531
vt 0.164965 0.167421
vt 0.164965 0.167421
vt 0.043576 0.989025
vt 0.043576 0.989025
vt 0.043576 0.989025
vt 0.043576 0.989025
vt 0.043576 0.989025
vt 0.043576 0.989025
vt 0.043576 0.989025
vt 0.043576 0.989025
vt 0.000000 0.000000
vt 0.000000 0.000000
vt 0.000000 0.000000
vt 0.043576 0.989025
vt 0.043576 0.989025
vt 0.043576 0.989025
vt 0.043576 0.989025
vt 0.043576 0.989025
vt 0.043576 0.989025
vt 0.043576 0.989025
vt 0.043576 0.989025
vt 0.000000 0.000000
vt 0.000000 0.000000
vt 0.000000 0.000000
vt 0.000000 0.000000
vt 0.043576 0.989025
vt 0.052913 0.979724
vt 0.000000 0.000000
vt 0.000000 0.000000
vt 0.000000 0.000000
vn -1.0000 0.0000 0.0000
vn 0.0000 0.0000 -1.0000
vn 1.0000 0.0000 0.0000
vn 0.0000 0.0000 1.0000
vn 0.0000 -1.0000 0.0000
vn 0.0000 1.0000 0.0000
vn 0.8402 -0.5020 0.2052
vn 0.0000 0.4566 -0.8897
vn -0.8402 -0.5020 0.2052
vn -0.0000 0.7524 0.6587
vn -0.1330 -0.9762 -0.1712
vn -0.0667 -0.9815 -0.1796
vn -0.5859 -0.4693 -0.6607
vn 0.9182 -0.0751 0.3891
vn -0.3786 -0.2776 0.8829
vn -0.2264 -0.3068 -0.9245
vn 0.9003 -0.2205 -0.3752
vn 0.3966 0.7518 0.5268
vn -0.3789 0.8352 0.3986
vn -0.7259 0.6648 -0.1763
vn -0.0030 0.8283 -0.5602
vn 0.4509 0.8548 -0.2571
vn 0.4054 0.7686 -0.4949
vn -0.2825 0.9042 -0.3203
vn 0.0223 0.9928 0.1178
vn -0.2953 0.8759 0.3815
vn 0.1885 0.9766 0.1038
vn 0.4519 0.8567 0.2488
vn 0.7171 0.6878 0.1126
vn 0.9145 0.0892 -0.3945
vn 0.5852 0.5703 -0.5764
vn -0.3751 0.2832 -0.8827
vn -0.8465 0.4910 -0.2056
vn -0.5556 0.5913 0.5845
vn -0.3779 0.2833 0.8814
vn 0.5185 0.5086 0.6874
vn 0.9060 0.1551 0.3937
vn 0.8406 0.5252 0.1324
vn 0.3666 -0.2830 -0.8863
vn 0.0946 -0.4448 -0.8906
vn -0.9003 0.2205 -0.3752
vn -0.9060 -0.1551 -0.3937
vn -0.8406 -0.5252 -0.1324
vn -0.9182 0.0751 0.3891
vn -0.9145 -0.0892 0.3945
vn -0.5610 -0.5904 0.5802
vn 0.3786 0.2776 0.8830
vn 0.3779 -0.2833 0.8814
vn 0.5556 -0.5913 0.5845
vn 0.8465 -0.4910 -0.2056
vn 0.1852 -0.9225 -0.3385
vn -0.4469 -0.8587 -0.2509
vn -0.7171 -0.6878 -0.1126
vn -0.4509 -0.8548 0.2571
vn -0.4202 -0.7966 0.4346
vn 0.7259 -0.6648 -0.1763
vn 0.3282 -0.8610 0.3886
vn 0.3789 -0.8352 0.3986
s off
f 2/1/1 3/2/1 1/3/1
f 4/4/2 7/5/2 3/2/2
f 8/6/3 5/7/3 7/5/3
f 6/8/4 1/3/4 5/7/4
f 7/5/5 1/3/5 3/2/5
f 4/9/6 6/10/6 8/11/6
f 10/12/1 11/13/1 9/14/1
f 12/15/2 15/16/2 11/13/2
f 16/17/3 13/18/3 15/19/3
f 14/20/4 9/14/4 13/21/4
f 15/16/5 9/14/5 11/13/5
f 16/22/6 10/23/6 14/24/6
f 17/25/7 18/26/7 19/27/7
f 19/28/8 18/29/8 20/30/8
f 20/30/9 18/29/9 17/31/9
f 17/31/10 19/28/10 20/30/10
f 26/32/11 30/33/11 21/34/11
f 26/35/12 21/36/12 29/37/12
f 21/36/13 32/38/13 38/39/13
f 28/40/14 34/41/14 36/42/14
f 27/43/15 35/44/15 37/45/15
f 21/36/16 38/39/16 41/46/16
f 33/47/17 40/48/17 34/41/17
f 22/49/18 42/50/18 44/51/18
f 23/52/19 22/49/19 46/53/19
f 24/54/20 23/52/20 46/53/20
f 41/46/21 24/54/21 25/55/21
f 45/56/22 43/57/22 25/55/22
f 43/57/23 41/46/23 25/55/23
f 25/55/24 24/54/24 46/53/24
f 46/53/25 44/51/25 25/55/25
f 46/53/26 22/49/26 44/51/26
f 44/51/27 45/56/27 25/55/27
f 44/51/28 42/50/28 45/56/28
f 42/50/29 43/57/29 45/56/29
f 34/41/30 40/48/30 43/57/30
f 40/48/31 41/46/31 43/57/31
f 41/46/32 38/39/32 24/54/32
f 39/58/33 23/52/33 24/54/33
f 37/45/34 22/49/34 23/52/34
f 37/45/35 35/44/35 22/49/35
f 36/59/36 42/60/36 22/61/36
f 36/42/37 34/41/37 42/50/37
f 34/41/38 43/57/38 42/50/38
f 40/48/39 33/47/39 41/46/39
f 33/47/40 21/36/40 41/46/40
f 38/39/41 39/58/41 24/54/41
f 38/39/42 32/38/42 39/58/42
f 32/38/43 31/62/43 39/58/43
f 39/58/44 37/45/44 23/52/44
f 39/58/45 31/62/45 37/45/45
f 31/62/46 27/43/46 37/45/46
f 35/44/47 36/42/47 22/49/47
f 35/44/48 27/43/48 36/42/48
f 27/43/49 28/40/49 36/42/49
f 28/40/50 33/47/50 34/41/50
f 29/37/51 21/36/51 33/47/51
f 21/36/52 30/63/52 32/38/52
f 30/63/53 31/62/53 32/38/53
f 30/63/54 26/35/54 31/62/54
f 26/35/55 27/43/55 31/62/55
f 28/40/56 29/37/56 33/47/56
f 26/35/57 29/37/57 27/43/57
f 29/37/58 28/40/58 27/43/58
f 48/64/1 49/65/1 47/66/1
f 50/67/2 53/68/2 49/65/2
f 54/69/3 51/70/3 53/68/3
f 52/71/4 47/66/4 51/70/4
f 53/68/5 47/66/5 49/65/5
f 50/72/6 52/73/6 54/74/6
f 56/75/1 57/76/1 55/77/1
f 58/78/2 61/79/2 57/76/2
f 62/80/3 59/81/3 61/79/3
f 60/82/4 55/77/4 59/81/4
f 61/79/5 55/77/5 57/76/5
f 58/83/6 60/84/6 62/85/6
f 2/1/1 4/4/1 3/2/1
f 4/4/2 8/6/2 7/5/2
f 8/6/3 6/8/3 5/7/3
f 6/8/4 2/1/4 1/3/4
f 7/5/5 5/7/5 1/3/5
f 4/9/6 2/86/6 6/10/6
f 10/12/1 12/15/1 11/13/1
f 12/15/2 16/87/2 15/16/2
f 16/17/3 14/88/3 13/18/3
f 14/20/4 10/12/4 9/14/4
f 15/16/5 13/21/5 9/14/5
f 16/22/6 12/89/6 10/23/6
f 48/64/1 50/67/1 49/65/1
f 50/67/2 54/69/2 53/68/2
f 54/69/3 52/71/3 51/70/3
f 52/71/4 48/64/4 47/66/4
f 53/68/5 51/70/5 47/66/5
f 50/72/6 48/90/6 52/73/6
f 56/75/1 58/78/1 57/76/1
f 58/78/2 62/80/2 61/79/2
f 62/80/3 60/82/3 59/81/3
f 60/82/4 56/75/4 55/77/4
f 61/79/5 59/81/5 55/77/5
f 58/83/6 56/91/6 60/84/6
