# Blender v2.79 (sub 0) OBJ File: 'treee.blend'
# www.blender.org
v 5.575611 7.392124 0.593982
v 7.834196 8.886485 2.031550
v 4.712926 8.886485 2.920035
v 2.783827 8.886485 0.593982
v 4.712926 8.886485 -1.732071
v 7.834196 8.886485 -0.843586
v 6.438296 11.304425 2.920035
v 3.317026 11.304425 2.031550
v 3.317026 11.304425 -0.843586
v 6.438296 11.304425 -1.732071
v 8.367394 11.304425 0.593982
v 5.575611 12.798788 0.593982
v -0.182989 0.050408 0.182989
v -0.182989 6.342046 0.182989
v -0.182989 0.050408 -0.182989
v -0.182989 6.342046 -0.182989
v 0.182989 0.050408 0.182989
v 0.182989 6.342046 0.182989
v 0.182989 0.050408 -0.182989
v 0.182989 6.342046 -0.182989
v -0.182989 9.535380 4.319210
v -0.182989 9.535380 3.953232
v 0.182989 9.535380 3.953232
v 0.182989 9.535380 4.319210
v -0.182989 6.772783 -0.001913
v 0.182989 6.772783 -0.001913
v 0.182989 6.772783 0.364066
v -0.182989 6.772783 0.364066
v -0.182989 7.117933 0.143185
v -0.182989 7.117933 0.509163
v 0.182989 7.117933 0.143185
v 0.182989 7.117933 0.509163
v 0.964103 7.846628 -2.521701
v 0.964103 7.501478 -2.666798
v 0.598125 7.501478 -2.666798
v 0.598125 7.846628 -2.521701
v -0.182989 7.433787 0.326230
v -0.182989 7.433787 0.692209
v 0.182989 7.433787 0.326230
v 0.182989 7.433787 0.692209
v -0.182989 7.807195 0.593449
v -0.182989 7.807195 0.959428
v 0.182989 7.807195 0.593449
v 0.182989 7.807195 0.959428
v 3.598635 10.804901 0.339843
v 3.598635 10.431493 0.072623
v 3.598635 10.804901 0.705822
v 3.598635 10.431493 0.438602
v 0.163735 7.160858 5.183059
v 2.470196 8.783059 7.234517
v -0.717236 8.783059 8.502415
v -2.687227 8.783060 5.183059
v -0.717236 8.783059 1.863703
v 2.470196 8.783059 3.131601
v 1.044707 11.407852 8.502415
v -2.142725 11.407854 7.234517
v -2.142725 11.407854 3.131601
v 1.044707 11.407852 1.863703
v 3.014697 11.407852 5.183059
v 0.163735 13.030055 5.183059
v 1.459113 6.163959 -2.606606
v 3.263691 8.241918 -1.044614
v 0.798550 7.504086 -0.184496
v -0.678573 7.504087 -2.606606
v 0.798550 7.504086 -5.028716
v 3.188526 7.504086 -4.103539
v 1.829979 9.303555 0.196380
v -0.270299 9.672472 -1.109673
v -0.270299 9.672472 -4.103539
v 2.119677 9.672471 -5.028716
v 3.811333 9.303555 -3.052541
v 1.459113 11.012599 -2.606606
vt 0.730724 0.197418
vt 0.730724 0.197418
vt 0.730724 0.197418
vt 0.734631 0.783356
vt 0.734631 0.783356
vt 0.734631 0.783356
vt 0.914318 0.185699
vt 0.914318 0.185699
vt 0.914318 0.185699
vt 0.844006 0.818512
vt 0.844006 0.818512
vt 0.844006 0.818512
vt 0.851818 0.927887
vt 0.851818 0.927887
vt 0.851818 0.927887
vt 0.894787 0.966949
vt 0.894787 0.966949
vt 0.894787 0.966949
vt 0.765881 0.150543
vt 0.765881 0.150543
vt 0.765881 0.150543
vt 0.722912 0.853668
vt 0.722912 0.853668
vt 0.722912 0.853668
vt 0.894787 0.869293
vt 0.894787 0.869293
vt 0.894787 0.869293
vt 0.734631 0.947418
vt 0.734631 0.947418
vt 0.734631 0.947418
vt 0.918224 0.791168
vt 0.918224 0.791168
vt 0.918224 0.791168
vt 0.836193 0.873199
vt 0.836193 0.873199
vt 0.836193 0.873199
vt 0.976818 0.798981
vt 0.976818 0.798981
vt 0.976818 0.798981
vt 0.785412 0.810699
vt 0.785412 0.810699
vt 0.785412 0.810699
vt 0.877790 0.197554
vt 0.877790 0.197554
vt 0.877790 0.197554
vt 0.773693 0.779449
vt 0.773693 0.779449
vt 0.773693 0.779449
vt 0.734631 0.908356
vt 0.734631 0.908356
vt 0.734631 0.908356
vt 0.914318 0.904449
vt 0.914318 0.904449
vt 0.914318 0.904449
vt 0.945568 0.838043
vt 0.945568 0.838043
vt 0.945568 0.838043
vt 0.793224 0.939606
vt 0.793224 0.939606
vt 0.793224 0.939606
vt 0.171354 0.970039
vt 0.015946 0.017754
vt 0.171349 0.017754
vt 0.152090 0.970041
vt 0.015941 0.017752
vt 0.152088 0.017752
vt 0.171354 0.970039
vt 0.015946 0.017754
vt 0.171349 0.017754
vt 0.152090 0.970041
vt 0.015941 0.017752
vt 0.152088 0.017752
vt 0.297363 0.967357
vt 0.181167 0.837958
vt 0.297363 0.837957
vt 0.469492 0.017314
vt 0.387782 0.997571
vt 0.386517 0.017421
vt 0.015881 0.017731
vt 0.015881 0.017731
vt 0.015881 0.017731
vt 0.502776 0.124426
vt 0.536286 0.889351
vt 0.498624 0.960867
vt 0.534775 0.100758
vt 0.499676 0.895147
vt 0.495688 0.026470
vt 0.559284 0.009206
vt 0.480569 0.991070
vt 0.476195 0.009576
vt 0.321204 0.004965
vt 0.130465 0.285657
vt 0.130465 0.004965
vt 0.325170 0.116097
vt 0.110170 0.249019
vt 0.165612 0.003214
vt 0.230820 0.106727
vt 0.458035 0.329518
vt 0.230820 0.423949
vt 0.021060 0.976989
vt 0.245676 0.644936
vt 0.246377 0.976513
vt 0.321204 0.285657
vt 0.130465 0.510577
vt 0.269728 0.361901
vt 0.065744 0.445983
vt 0.458035 0.583708
vt 0.230820 0.678139
vt 0.650155 0.944107
vt 0.556876 0.064684
vt 0.655721 0.040866
vt 0.015881 0.017731
vt 0.015881 0.017731
vt 0.015881 0.017731
vt 0.506469 0.971727
vt 0.630249 0.048667
vt 0.630076 0.986703
vt 0.219722 0.039341
vt 0.354497 0.957621
vt 0.231511 0.974074
vt 0.186185 0.982670
vt 0.278658 0.033934
vt 0.292943 1.007435
vt 0.321204 0.510577
vt 0.130465 0.729629
vt 0.225302 0.558866
vt 0.047003 0.641732
vt 0.426829 0.829292
vt 0.199614 0.923723
vt 0.246504 0.976513
vt 0.471273 0.717275
vt 0.471820 0.976037
vt 0.321204 0.729629
vt 0.130465 1.004878
vt 0.206560 0.754615
vt 0.047003 0.888825
vt 0.245957 0.717751
vt 0.470586 0.392128
vt 0.357258 0.951487
vt 0.263835 0.064029
vt 0.349120 0.007436
vt 0.015881 0.017731
vt 0.015881 0.017731
vt 0.015881 0.017731
vt 0.357364 0.997683
vt 0.255917 0.009417
vt 0.340988 0.002946
vt 0.403555 0.009005
vt 0.318389 0.998807
vt 0.318389 0.003935
vt 0.316268 0.055885
vt 0.230498 0.944115
vt 0.230498 0.000029
vt 0.964896 0.030024
vt 0.804356 0.226048
vt 0.675729 0.030024
vt 0.653774 0.442544
vt 0.831742 0.216733
vt 1.009710 0.442544
vt 0.960516 0.509702
vt 0.656672 0.373621
vt 0.960516 0.246661
vt 0.662489 0.733395
vt 0.769071 0.495419
vt 0.992518 0.733395
vt 0.690902 0.036345
vt 0.979517 0.272715
vt 0.690902 0.363223
vt 0.670471 0.198763
vt 1.000081 0.449429
vt 0.670471 0.540804
vt 0.690584 0.309505
vt 0.984810 0.460945
vt 0.690584 0.640889
vt 1.005136 0.579977
vt 0.682364 0.579977
vt 0.829119 0.346511
vt 0.968051 0.879168
vt 0.677212 0.696348
vt 0.968051 0.585676
vt 1.003108 0.271938
vt 0.835283 0.547790
vt 0.666577 0.271938
vt 0.985419 0.187189
vt 0.985419 0.564780
vt 0.652580 0.313843
vt 0.831153 0.350294
vt 0.993200 0.665128
vt 0.639613 0.665128
vt 0.693671 0.992152
vt 0.693671 0.685647
vt 0.989037 0.910270
vt 0.734843 0.574712
vt 0.734843 0.262877
vt 0.990453 0.418386
vt 0.674012 0.274126
vt 1.001874 0.274126
vt 0.797644 0.599025
vt 0.676102 0.064702
vt 0.987382 0.064702
vt 0.891518 0.294125
vt 0.697898 0.298170
vt 0.697898 0.020531
vt 0.984189 0.208390
vt 0.995608 0.337554
vt 0.660642 0.337554
vt 0.828125 0.125046
vt 0.999771 0.425490
vt 0.844769 0.661708
vt 0.651311 0.425490
vt 0.675308 0.271204
vt 1.012980 0.412300
vt 0.675308 0.563530
vt 0.715099 0.802887
vt 0.715099 0.802887
vt 0.715099 0.802887
vt 0.821983 0.017731
vt 0.821983 0.017731
vt 0.821983 0.017731
vt 0.834384 0.414581
vt 0.834384 0.414581
vt 0.834384 0.414581
vt 0.831855 0.261437
vt 0.917996 0.434050
vt 0.689428 0.450356
vt 0.865388 0.330870
vt 0.865388 0.330870
vt 0.865388 0.330870
vt 0.769276 0.030132
vt 0.769276 0.030132
vt 0.769276 0.030132
vt 0.742443 0.830231
vt 0.742443 0.830231
vt 0.742443 0.830231
vt 0.859187 0.426983
vt 0.859187 0.426983
vt 0.859187 0.426983
vt 0.807224 0.593623
vt 0.893292 0.194453
vt 0.893292 0.194453
vt 0.893292 0.194453
vt 0.918224 0.752106
vt 0.918224 0.752106
vt 0.918224 0.752106
vt 0.856087 0.200654
vt 0.856087 0.200654
vt 0.856087 0.200654
vt 0.917029 0.457994
vt 0.995359 0.612528
vt 0.832463 0.579816
vt 0.653008 0.654720
vt 0.949099 0.101441
vt 0.949099 0.101441
vt 0.949099 0.101441
vt 0.890191 0.067337
vt 0.890191 0.067337
vt 0.890191 0.067337
vt 0.701068 0.185152
vt 0.701068 0.185152
vt 0.701068 0.185152
vt 0.823117 0.606768
vt 1.004704 0.643233
vt 0.862428 0.756953
vt 0.853416 0.770098
vt 0.790979 0.061136
vt 0.790979 0.061136
vt 0.790979 0.061136
vt 0.015946 0.970039
vt 0.015941 0.970041
vt 0.015946 0.970039
vt 0.015941 0.970041
vt 0.181167 0.967357
vt 0.470758 0.997464
vt 0.015881 0.017731
vt 0.540438 0.052909
vt 0.538762 0.969433
vt 0.563658 0.990699
vt 0.458035 0.012297
vt 0.020360 0.645412
vt 0.551310 0.967925
vt 0.015881 0.017731
vt 0.506643 0.033691
vt 0.342708 0.022887
vt 0.171902 0.009169
vt 0.321204 1.004878
vt 0.206560 1.001707
vt 0.245270 0.392604
vt 0.271974 1.008080
vt 0.015881 0.017731
vt 0.272293 1.004154
vt 0.403552 1.003877
vt 0.316268 0.999971
vn 0.1638 -0.8012 0.5755
vn 0.5518 -0.8340 0.0000
vn -0.4395 -0.8210 0.3645
vn -0.4395 -0.8210 -0.3645
vn 0.1638 -0.8012 -0.5755
vn 0.9765 -0.2153 0.0000
vn 0.2687 -0.1917 0.9439
vn -0.7533 -0.2053 0.6248
vn -0.7533 -0.2053 -0.6248
vn 0.2687 -0.1917 -0.9439
vn 0.7533 0.2053 0.6248
vn -0.2687 0.1917 0.9439
vn -0.9765 0.2153 0.0000
vn -0.2687 0.1917 -0.9439
vn 0.7533 0.2053 -0.6248
vn 0.4395 0.8210 0.3645
vn -0.1638 0.8012 0.5755
vn -0.5518 0.8340 0.0000
vn -0.1638 0.8012 -0.5755
vn 0.4395 0.8210 -0.3645
vn -1.0000 0.0000 0.0000
vn 0.0000 0.0000 -1.0000
vn 1.0000 0.0000 0.0000
vn 0.0000 0.0000 1.0000
vn 0.0000 -1.0000 0.0000
vn 0.0000 0.8893 -0.4574
vn 0.0000 1.0000 0.0000
vn 0.0000 -0.8893 0.4574
vn 0.0000 -0.3875 0.9219
vn 0.0000 0.3875 -0.9219
vn 0.0000 -0.9646 -0.2638
vn 0.9617 -0.1063 0.2528
vn -0.9617 0.1063 -0.2528
vn 0.0000 0.9646 0.2638
vn 0.0000 -0.5014 0.8652
vn 0.0000 0.5014 -0.8652
vn 0.0000 -0.5820 0.8132
vn 0.0000 0.5820 -0.8132
vn 0.4959 -0.5053 0.7062
vn -0.6596 0.7516 0.0000
vn 0.6596 -0.7516 0.0000
vn -0.4959 0.5053 -0.7062
vn 0.1874 -0.8620 0.4710
vn 0.5753 -0.8180 0.0000
vn -0.4745 -0.8340 0.2816
vn -0.4745 -0.8340 -0.2816
vn 0.1874 -0.8620 -0.4710
vn 0.9792 -0.2031 0.0000
vn 0.3587 -0.2408 0.9018
vn -0.8398 -0.2153 0.4984
vn -0.8398 -0.2153 -0.4984
vn 0.3587 -0.2408 -0.9018
vn 0.8398 0.2153 0.4984
vn -0.3587 0.2408 0.9018
vn -0.9792 0.2031 0.0000
vn -0.3587 0.2408 -0.9018
vn 0.8398 0.2153 -0.4984
vn 0.4745 0.8340 0.2816
vn -0.1874 0.8620 0.4710
vn -0.5753 0.8180 0.0000
vn -0.1874 0.8620 -0.4710
vn 0.4745 0.8340 -0.2816
vn 0.4069 -0.7478 0.5247
vn 0.6854 -0.7116 0.1548
vn -0.5053 -0.8060 0.3082
vn -0.5053 -0.8060 -0.3082
vn 0.1996 -0.8333 -0.5155
vn 0.9310 -0.3595 0.0638
vn 0.4071 -0.4065 0.8180
vn -0.8374 -0.1949 0.5107
vn -0.8374 -0.1949 -0.5107
vn 0.3526 -0.2148 -0.9108
vn 0.7499 0.4781 0.4573
vn -0.5105 0.1121 0.8526
vn -0.9827 0.1850 0.0000
vn -0.3526 0.2148 -0.9108
vn 0.7651 0.1061 -0.6351
vn 0.5920 0.7206 0.3610
vn -0.1837 0.8283 0.5293
vn -0.6125 0.7905 0.0000
vn -0.1996 0.8333 -0.5155
vn 0.5232 0.7981 -0.2989
s off
f 1/1/1 2/2/1 3/3/1
f 2/4/2 1/5/2 6/6/2
f 1/7/3 3/8/3 4/9/3
f 1/10/4 4/11/4 5/12/4
f 1/13/5 5/14/5 6/15/5
f 2/16/6 6/17/6 11/18/6
f 3/19/7 2/20/7 7/21/7
f 4/22/8 3/23/8 8/24/8
f 5/25/9 4/26/9 9/27/9
f 6/28/10 5/29/10 10/30/10
f 2/31/11 11/32/11 7/33/11
f 3/34/12 7/35/12 8/36/12
f 4/37/13 8/38/13 9/39/13
f 5/40/14 9/41/14 10/42/14
f 6/43/15 10/44/15 11/45/15
f 7/46/16 11/47/16 12/48/16
f 8/49/17 7/50/17 12/51/17
f 9/52/18 8/53/18 12/54/18
f 10/55/19 9/56/19 12/57/19
f 11/58/20 10/59/20 12/60/20
f 14/61/21 15/62/21 13/63/21
f 16/64/22 19/65/22 15/66/22
f 20/67/23 17/68/23 19/69/23
f 18/70/24 13/71/24 17/72/24
f 19/73/25 13/74/25 15/75/25
f 41/76/26 23/77/26 43/78/26
f 22/79/27 24/80/27 23/81/27
f 44/82/23 23/83/23 24/84/23
f 42/85/21 22/86/21 41/87/21
f 44/88/28 21/89/28 42/90/28
f 18/91/29 28/92/29 14/93/29
f 14/94/21 25/95/21 16/96/21
f 18/97/23 26/98/23 27/99/23
f 16/100/30 26/101/30 20/102/30
f 27/103/29 30/104/29 28/92/29
f 28/105/21 29/106/21 25/95/21
f 27/99/23 31/107/23 32/108/23
f 26/109/31 35/110/31 34/111/31
f 35/112/30 33/113/30 34/114/30
f 26/115/32 33/116/32 31/117/32
f 25/118/33 36/119/33 35/120/33
f 31/121/34 36/122/34 29/123/34
f 32/124/35 38/125/35 30/104/35
f 30/126/21 37/127/21 29/106/21
f 32/108/23 39/128/23 40/129/23
f 29/130/36 39/131/36 31/132/36
f 40/133/37 42/134/37 38/125/37
f 38/135/21 41/136/21 37/127/21
f 37/137/38 43/138/38 39/131/38
f 44/139/39 48/140/39 47/141/39
f 45/142/23 48/143/23 46/144/23
f 43/145/40 47/146/40 45/147/40
f 39/148/41 48/149/41 40/150/41
f 43/151/42 46/152/42 39/153/42
f 49/154/43 50/155/43 51/156/43
f 50/157/44 49/158/44 54/159/44
f 49/160/45 51/161/45 52/162/45
f 49/163/46 52/164/46 53/165/46
f 49/166/47 53/167/47 54/168/47
f 50/169/48 54/170/48 59/171/48
f 51/172/49 50/173/49 55/174/49
f 52/175/50 51/176/50 56/177/50
f 53/178/51 52/179/51 57/180/51
f 54/181/52 53/182/52 58/183/52
f 50/184/53 59/185/53 55/186/53
f 51/187/54 55/188/54 56/189/54
f 52/190/55 56/191/55 57/192/55
f 53/193/56 57/194/56 58/195/56
f 54/196/57 58/197/57 59/198/57
f 55/199/58 59/200/58 60/201/58
f 56/202/59 55/203/59 60/204/59
f 57/205/60 56/206/60 60/207/60
f 58/208/61 57/209/61 60/210/61
f 59/211/62 58/212/62 60/213/62
f 61/214/63 62/215/63 63/216/63
f 62/217/64 61/218/64 66/219/64
f 61/220/65 63/221/65 64/222/65
f 61/223/66 64/224/66 65/225/66
f 61/226/67 65/227/67 66/228/67
f 62/229/68 66/230/68 71/231/68
f 63/232/69 62/233/69 67/234/69
f 64/235/70 63/236/70 68/237/70
f 65/225/71 64/224/71 69/238/71
f 66/239/72 65/240/72 70/241/72
f 62/242/73 71/243/73 67/244/73
f 63/245/74 67/246/74 68/247/74
f 64/248/75 68/249/75 69/250/75
f 65/225/76 69/238/76 70/251/76
f 66/252/77 70/253/77 71/254/77
f 67/255/78 71/256/78 72/257/78
f 68/258/79 67/259/79 72/260/79
f 69/261/80 68/262/80 72/263/80
f 70/251/81 69/238/81 72/264/81
f 71/265/82 70/266/82 72/267/82
f 14/61/21 16/268/21 15/62/21
f 16/64/22 20/269/22 19/65/22
f 20/67/23 18/270/23 17/68/23
f 18/70/24 14/271/24 13/71/24
f 19/73/25 17/272/25 13/74/25
f 41/76/26 22/273/26 23/77/26
f 22/79/27 21/274/27 24/80/27
f 44/82/23 43/275/23 23/83/23
f 42/85/21 21/276/21 22/86/21
f 44/88/28 24/277/28 21/89/28
f 18/91/29 27/103/29 28/92/29
f 14/94/21 28/105/21 25/95/21
f 18/97/23 20/278/23 26/98/23
f 16/100/30 25/279/30 26/101/30
f 27/103/29 32/124/29 30/104/29
f 28/105/21 30/126/21 29/106/21
f 27/99/23 26/98/23 31/107/23
f 26/109/31 25/280/31 35/110/31
f 35/112/30 36/281/30 33/113/30
f 26/115/32 34/282/32 33/116/32
f 25/118/33 29/283/33 36/119/33
f 31/121/34 33/284/34 36/122/34
f 32/124/35 40/133/35 38/125/35
f 30/126/21 38/135/21 37/127/21
f 32/108/23 31/107/23 39/128/23
f 29/130/36 37/137/36 39/131/36
f 40/133/37 44/285/37 42/134/37
f 38/135/21 42/286/21 41/136/21
f 37/137/38 41/287/38 43/138/38
f 44/139/39 40/288/39 48/140/39
f 45/142/23 47/289/23 48/143/23
f 43/145/40 44/290/40 47/146/40
f 39/148/41 46/291/41 48/149/41
f 43/151/42 45/292/42 46/152/42
